<mxfile host="www.draw.io" modified="2020-03-01T17:30:07.611Z" agent="Mozilla/5.0 (X11; Ubuntu; Linux x86_64; rv:65.0) Gecko/20100101 Firefox/65.0" etag="DD5PE8-JH8WCGz5Rcc8L" version="12.7.9" type="github">
  <diagram id="Nh_-Cibzfuy0sX2nUB6H" name="Page-1">
    <mxGraphModel dx="2644" dy="-2397" grid="1" gridSize="15" guides="1" tooltips="1" connect="1" arrows="1" fold="1" page="1" pageScale="1" pageWidth="1500" pageHeight="1500" math="0" shadow="0">
      <root>
        <mxCell id="0" />
        <mxCell id="1" parent="0" />
        <mxCell id="12F1lyHg-L7ddGx0VzQN-3" value="" style="rounded=1;whiteSpace=wrap;html=1;" parent="1" vertex="1">
          <mxGeometry x="-1500" y="4440" width="60" height="60" as="geometry" />
        </mxCell>
        <mxCell id="12F1lyHg-L7ddGx0VzQN-4" value="Start" style="text;html=1;strokeColor=none;fillColor=none;align=center;verticalAlign=middle;whiteSpace=wrap;rounded=0;" parent="1" vertex="1">
          <mxGeometry x="-1490" y="4460" width="40" height="20" as="geometry" />
        </mxCell>
        <mxCell id="y02_UNOxo5IWgcYLS5L4-3" value="" style="rounded=1;whiteSpace=wrap;html=1;" vertex="1" parent="1">
          <mxGeometry x="-1440" y="4440" width="60" height="60" as="geometry" />
        </mxCell>
        <mxCell id="y02_UNOxo5IWgcYLS5L4-4" value="" style="rounded=1;whiteSpace=wrap;html=1;" vertex="1" parent="1">
          <mxGeometry x="-1380" y="4440" width="60" height="60" as="geometry" />
        </mxCell>
        <mxCell id="y02_UNOxo5IWgcYLS5L4-5" value="" style="rounded=1;whiteSpace=wrap;html=1;" vertex="1" parent="1">
          <mxGeometry x="-1320" y="4440" width="60" height="60" as="geometry" />
        </mxCell>
        <mxCell id="y02_UNOxo5IWgcYLS5L4-6" value="" style="rounded=1;whiteSpace=wrap;html=1;" vertex="1" parent="1">
          <mxGeometry x="-1260" y="4440" width="60" height="60" as="geometry" />
        </mxCell>
        <mxCell id="y02_UNOxo5IWgcYLS5L4-7" value="" style="rounded=1;whiteSpace=wrap;html=1;" vertex="1" parent="1">
          <mxGeometry x="-1200" y="4440" width="60" height="60" as="geometry" />
        </mxCell>
        <mxCell id="y02_UNOxo5IWgcYLS5L4-8" value="" style="rounded=1;whiteSpace=wrap;html=1;" vertex="1" parent="1">
          <mxGeometry x="-1140" y="4440" width="60" height="60" as="geometry" />
        </mxCell>
        <mxCell id="y02_UNOxo5IWgcYLS5L4-9" value="" style="rounded=1;whiteSpace=wrap;html=1;" vertex="1" parent="1">
          <mxGeometry x="-1080" y="4440" width="60" height="60" as="geometry" />
        </mxCell>
        <mxCell id="y02_UNOxo5IWgcYLS5L4-10" value="" style="rounded=1;whiteSpace=wrap;html=1;" vertex="1" parent="1">
          <mxGeometry x="-1020" y="4440" width="60" height="60" as="geometry" />
        </mxCell>
        <mxCell id="y02_UNOxo5IWgcYLS5L4-11" value="" style="rounded=1;whiteSpace=wrap;html=1;" vertex="1" parent="1">
          <mxGeometry x="-960" y="4440" width="60" height="60" as="geometry" />
        </mxCell>
        <mxCell id="y02_UNOxo5IWgcYLS5L4-13" value="" style="rounded=1;whiteSpace=wrap;html=1;" vertex="1" parent="1">
          <mxGeometry x="-900" y="4440" width="60" height="60" as="geometry" />
        </mxCell>
        <mxCell id="y02_UNOxo5IWgcYLS5L4-14" value="" style="rounded=1;whiteSpace=wrap;html=1;" vertex="1" parent="1">
          <mxGeometry x="-840" y="4440" width="60" height="60" as="geometry" />
        </mxCell>
        <mxCell id="y02_UNOxo5IWgcYLS5L4-15" value="" style="rounded=1;whiteSpace=wrap;html=1;" vertex="1" parent="1">
          <mxGeometry x="-780" y="4440" width="60" height="60" as="geometry" />
        </mxCell>
        <mxCell id="y02_UNOxo5IWgcYLS5L4-16" value="" style="rounded=1;whiteSpace=wrap;html=1;" vertex="1" parent="1">
          <mxGeometry x="-720" y="4440" width="60" height="60" as="geometry" />
        </mxCell>
        <mxCell id="y02_UNOxo5IWgcYLS5L4-17" value="" style="rounded=1;whiteSpace=wrap;html=1;" vertex="1" parent="1">
          <mxGeometry x="-660" y="4440" width="60" height="60" as="geometry" />
        </mxCell>
        <mxCell id="y02_UNOxo5IWgcYLS5L4-18" value="" style="rounded=1;whiteSpace=wrap;html=1;" vertex="1" parent="1">
          <mxGeometry x="-600" y="4440" width="60" height="60" as="geometry" />
        </mxCell>
        <mxCell id="y02_UNOxo5IWgcYLS5L4-19" value="" style="rounded=1;whiteSpace=wrap;html=1;" vertex="1" parent="1">
          <mxGeometry x="-540" y="4440" width="60" height="60" as="geometry" />
        </mxCell>
        <mxCell id="y02_UNOxo5IWgcYLS5L4-20" value="" style="rounded=1;whiteSpace=wrap;html=1;" vertex="1" parent="1">
          <mxGeometry x="-480" y="4440" width="60" height="60" as="geometry" />
        </mxCell>
        <mxCell id="y02_UNOxo5IWgcYLS5L4-21" value="" style="rounded=1;whiteSpace=wrap;html=1;" vertex="1" parent="1">
          <mxGeometry x="-420" y="4440" width="60" height="60" as="geometry" />
        </mxCell>
        <mxCell id="y02_UNOxo5IWgcYLS5L4-22" value="" style="rounded=1;whiteSpace=wrap;html=1;" vertex="1" parent="1">
          <mxGeometry x="-360" y="4440" width="60" height="60" as="geometry" />
        </mxCell>
        <mxCell id="y02_UNOxo5IWgcYLS5L4-23" value="" style="rounded=1;whiteSpace=wrap;html=1;" vertex="1" parent="1">
          <mxGeometry x="-300" y="4440" width="60" height="60" as="geometry" />
        </mxCell>
        <mxCell id="y02_UNOxo5IWgcYLS5L4-24" value="" style="rounded=1;whiteSpace=wrap;html=1;" vertex="1" parent="1">
          <mxGeometry x="-240" y="4440" width="60" height="60" as="geometry" />
        </mxCell>
        <mxCell id="y02_UNOxo5IWgcYLS5L4-25" value="" style="rounded=1;whiteSpace=wrap;html=1;" vertex="1" parent="1">
          <mxGeometry x="-180" y="4440" width="60" height="60" as="geometry" />
        </mxCell>
        <mxCell id="y02_UNOxo5IWgcYLS5L4-26" value="" style="rounded=1;whiteSpace=wrap;html=1;" vertex="1" parent="1">
          <mxGeometry x="-120" y="4440" width="60" height="60" as="geometry" />
        </mxCell>
        <mxCell id="y02_UNOxo5IWgcYLS5L4-27" value="" style="rounded=1;whiteSpace=wrap;html=1;" vertex="1" parent="1">
          <mxGeometry x="-60" y="4440" width="60" height="60" as="geometry" />
        </mxCell>
      </root>
    </mxGraphModel>
  </diagram>
</mxfile>
